<svg width="24" height="24" viewBox="0 0 24 24" fill="none" xmlns="http://www.w3.org/2000/svg">
<circle cx="12" cy="12" r="11.5" fill="white" stroke="#2F80ED"/>
<path d="M13.5703 12.1953L10.8516 11.3984C10.4766 11.3047 10.1953 11 10.125 10.625C10.0312 10.0156 10.5 9.5 11.0859 9.5H12.7969C13.1719 9.5 13.5469 9.61719 13.8516 9.85156C13.9922 9.94531 14.2031 9.92188 14.3203 9.80469L14.8594 9.26562C15.0234 9.10156 15 8.84375 14.8359 8.70312C14.25 8.25781 13.5469 8 12.7969 8H12.75V6.875C12.75 6.6875 12.5625 6.5 12.375 6.5H11.625C11.4141 6.5 11.25 6.6875 11.25 6.875V8H11.1797C10.0312 8 8.95312 8.75 8.69531 9.875C8.36719 11.1875 9.16406 12.4766 10.4062 12.8281L13.125 13.625C13.5 13.7188 13.8047 14.0234 13.8516 14.3984C13.9453 14.9844 13.4766 15.5 12.9141 15.5H11.1797C10.8047 15.5 10.4297 15.3828 10.125 15.1719C9.98438 15.0781 9.77344 15.1016 9.65625 15.2188L9.11719 15.7578C8.95312 15.9219 8.97656 16.1797 9.14062 16.3203C9.72656 16.7656 10.4297 17 11.1797 17H11.25V18.125C11.25 18.3359 11.4141 18.5 11.625 18.5H12.375C12.5625 18.5 12.75 18.3359 12.75 18.125V17H12.7969C13.9453 17 15.0234 16.2734 15.2812 15.1484C15.6094 13.8359 14.8125 12.5469 13.5703 12.1953Z" fill="#2F80ED"/>
</svg>
