<svg width="22" height="20" viewBox="0 0 22 20" fill="none" xmlns="http://www.w3.org/2000/svg">
<path d="M20.936 8.63677C20.8923 8.69443 20.8357 8.74099 20.7706 8.77268C20.7056 8.80437 20.634 8.8203 20.5616 8.81917C20.4535 8.81781 20.3488 8.78067 20.264 8.71357L19.16 7.83037V17.2768C19.1563 17.6146 19.086 17.9485 18.9532 18.2592C18.8204 18.5699 18.6277 18.8514 18.3862 19.0876C18.1446 19.3239 17.8588 19.5102 17.5452 19.636C17.2316 19.7618 16.8963 19.8246 16.5584 19.8208H13.4V14.5504C13.4051 13.906 13.1569 13.2855 12.7088 12.8224C12.4888 12.5906 12.2237 12.4064 11.9299 12.2809C11.636 12.1554 11.3196 12.0914 11 12.0928C10.6811 12.0965 10.366 12.1631 10.0727 12.2886C9.7795 12.4142 9.51386 12.5963 9.29099 12.8245C9.06813 13.0527 8.8924 13.3226 8.77384 13.6187C8.65529 13.9148 8.59623 14.2314 8.60003 14.5504V19.8208H5.46083C5.12169 19.8258 4.78488 19.7641 4.46962 19.639C4.15436 19.5139 3.86684 19.3279 3.62347 19.0916C3.3801 18.8554 3.18565 18.5735 3.05122 18.2621C2.9168 17.9507 2.84504 17.6159 2.84003 17.2768V7.82077L1.72643 8.71357C1.62628 8.78014 1.5048 8.80669 1.38601 8.78798C1.26722 8.76926 1.15979 8.70664 1.08496 8.6125C1.01013 8.51837 0.973365 8.39957 0.981934 8.27962C0.990502 8.15968 1.04378 8.04731 1.13123 7.96477L10.7312 0.28477C10.8144 0.214396 10.9199 0.175781 11.0288 0.175781C11.1378 0.175781 11.2432 0.214396 11.3264 0.28477L20.9264 7.96477C21.0157 8.05323 21.0667 8.17316 21.0685 8.29881C21.0703 8.42445 21.0227 8.54579 20.936 8.63677Z" fill="#FFAB6B"/>
</svg>
