<svg width="24" height="24" viewBox="0 0 24 24" fill="none" xmlns="http://www.w3.org/2000/svg">
<circle cx="12" cy="12" r="11.5" fill="white" stroke="#219653"/>
<path d="M10.2188 13.25C10.3594 13.25 10.5 13.1328 10.5 12.9688V12.0312C10.5 11.8906 10.3594 11.75 10.2188 11.75H9.28125C9.11719 11.75 9 11.8906 9 12.0312V12.9688C9 13.1328 9.11719 13.25 9.28125 13.25H10.2188ZM12.75 12.9688V12.0312C12.75 11.8906 12.6094 11.75 12.4688 11.75H11.5312C11.3672 11.75 11.25 11.8906 11.25 12.0312V12.9688C11.25 13.1328 11.3672 13.25 11.5312 13.25H12.4688C12.6094 13.25 12.75 13.1328 12.75 12.9688ZM15 12.9688V12.0312C15 11.8906 14.8594 11.75 14.7188 11.75H13.7812C13.6172 11.75 13.5 11.8906 13.5 12.0312V12.9688C13.5 13.1328 13.6172 13.25 13.7812 13.25H14.7188C14.8594 13.25 15 13.1328 15 12.9688ZM12.75 15.2188V14.2812C12.75 14.1406 12.6094 14 12.4688 14H11.5312C11.3672 14 11.25 14.1406 11.25 14.2812V15.2188C11.25 15.3828 11.3672 15.5 11.5312 15.5H12.4688C12.6094 15.5 12.75 15.3828 12.75 15.2188ZM10.5 15.2188V14.2812C10.5 14.1406 10.3594 14 10.2188 14H9.28125C9.11719 14 9 14.1406 9 14.2812V15.2188C9 15.3828 9.11719 15.5 9.28125 15.5H10.2188C10.3594 15.5 10.5 15.3828 10.5 15.2188ZM15 15.2188V14.2812C15 14.1406 14.8594 14 14.7188 14H13.7812C13.6172 14 13.5 14.1406 13.5 14.2812V15.2188C13.5 15.3828 13.6172 15.5 13.7812 15.5H14.7188C14.8594 15.5 15 15.3828 15 15.2188ZM17.25 9.125C17.25 8.51562 16.7344 8 16.125 8H15V6.78125C15 6.64062 14.8594 6.5 14.7188 6.5H13.7812C13.6172 6.5 13.5 6.64062 13.5 6.78125V8H10.5V6.78125C10.5 6.64062 10.3594 6.5 10.2188 6.5H9.28125C9.11719 6.5 9 6.64062 9 6.78125V8H7.875C7.24219 8 6.75 8.51562 6.75 9.125V17.375C6.75 18.0078 7.24219 18.5 7.875 18.5H16.125C16.7344 18.5 17.25 18.0078 17.25 17.375V9.125ZM16.125 17.2344C16.125 17.3281 16.0547 17.375 15.9844 17.375H8.01562C7.92188 17.375 7.875 17.3281 7.875 17.2344V10.25H16.125V17.2344Z" fill="#219653"/>
</svg>
