<svg width="22" height="23" viewBox="0 0 22 23" fill="none" xmlns="http://www.w3.org/2000/svg">
<path d="M11 22.2012C16.9941 22.2012 21.957 17.2275 21.957 11.2441C21.957 5.25 16.9834 0.287109 10.9893 0.287109C5.00586 0.287109 0.0429688 5.25 0.0429688 11.2441C0.0429688 17.2275 5.0166 22.2012 11 22.2012ZM11 14.9072C7.77734 14.9072 5.28516 16.0566 4.2002 17.3457C2.75 15.7344 1.87988 13.5967 1.87988 11.2441C1.87988 6.17383 5.91895 2.11328 10.9893 2.11328C16.0596 2.11328 20.1201 6.17383 20.1309 11.2441C20.1416 13.5967 19.2607 15.7344 17.8105 17.3564C16.7256 16.0674 14.2334 14.9072 11 14.9072ZM11 13.0811C13.0625 13.1025 14.6846 11.3408 14.6846 9.03125C14.6846 6.86133 13.0625 5.05664 11 5.05664C8.9375 5.05664 7.30469 6.86133 7.31543 9.03125C7.32617 11.3408 8.9375 13.0596 11 13.0811Z" fill="#4E4E4E"/>
</svg>
