<svg width="22" height="22" viewBox="0 0 22 22" fill="none" xmlns="http://www.w3.org/2000/svg">
<path d="M20.8592 8.96477L11.2592 1.28477C11.176 1.2144 11.0706 1.17578 10.9616 1.17578C10.8526 1.17578 10.7472 1.2144 10.664 1.28477L1.064 8.96477C0.976551 9.04731 0.923272 9.15968 0.914703 9.27962C0.906135 9.39957 0.942901 9.51837 1.01773 9.6125C1.09256 9.70664 1.19999 9.76926 1.31878 9.78798C1.43757 9.80669 1.55905 9.78014 1.6592 9.71357L2.84 8.82077V18.2768C2.85012 18.96 3.13061 19.6114 3.62004 20.0882C4.10947 20.565 4.76793 20.8285 5.4512 20.8208H9.08C9.2073 20.8208 9.32939 20.7702 9.41941 20.6802C9.50943 20.5902 9.56 20.4681 9.56 20.3408V15.5408C9.55482 15.1519 9.70305 14.7767 9.97259 14.4964C10.2421 14.2161 10.6113 14.0532 11 14.0432C11.1909 14.0425 11.3799 14.0814 11.555 14.1574C11.7302 14.2334 11.8877 14.3449 12.0176 14.4848C12.156 14.6229 12.2649 14.7877 12.3375 14.9693C12.4101 15.1509 12.445 15.3453 12.44 15.5408V20.3408C12.44 20.4681 12.4906 20.5902 12.5806 20.6802C12.6706 20.7702 12.7927 20.8208 12.92 20.8208H16.568C17.2487 20.8259 17.9037 20.561 18.3895 20.0842C18.8753 19.6074 19.1524 18.9575 19.16 18.2768V8.83997L20.2544 9.71357C20.3392 9.78067 20.4439 9.81781 20.552 9.81917C20.6243 9.8203 20.6959 9.80437 20.761 9.77268C20.826 9.74099 20.8827 9.69443 20.9264 9.63677C21.006 9.53849 21.0436 9.41278 21.031 9.28695C21.0184 9.16112 20.9567 9.04534 20.8592 8.96477ZM18.2 18.2768C18.1963 18.4886 18.1508 18.6976 18.0663 18.8918C17.9817 19.0861 17.8598 19.2617 17.7073 19.4088C17.5549 19.5559 17.375 19.6715 17.1778 19.7491C16.9807 19.8266 16.7702 19.8646 16.5584 19.8608H13.4V15.5504C13.405 14.906 13.1568 14.2855 12.7088 13.8224C12.4888 13.5906 12.2237 13.4064 11.9298 13.2809C11.636 13.1554 11.3195 13.0914 11 13.0928C10.681 13.0965 10.3659 13.1631 10.0727 13.2886C9.77946 13.4142 9.51383 13.5963 9.29096 13.8245C9.0681 14.0527 8.89237 14.3226 8.77381 14.6187C8.65526 14.9148 8.5962 15.2314 8.6 15.5504V19.8608H5.4608C5.24773 19.8659 5.03574 19.8289 4.83694 19.7521C4.63815 19.6752 4.45644 19.56 4.30221 19.4129C4.14798 19.2658 4.02424 19.0897 3.93807 18.8948C3.8519 18.6998 3.80498 18.4898 3.8 18.2768V8.04317L10.9904 2.28317L18.2 8.04317V18.2768Z" fill="#4E4E4E" stroke="#4E4E4E" stroke-width="0.7"/>
</svg>
