<svg width="22" height="23" viewBox="0 0 22 23" fill="none" xmlns="http://www.w3.org/2000/svg">
    <path d="M11 22.2012C16.9941 22.2012 21.957 17.2275 21.957 11.2441C21.957 5.25 16.9834 0.287109 10.9893 0.287109C5.00586 0.287109 0.0429688 5.25 0.0429688 11.2441C0.0429688 17.2275 5.0166 22.2012 11 22.2012ZM10.9785 13.0811C8.91602 13.0596 7.29395 11.3408 7.29395 9.03125C7.2832 6.86133 8.92676 5.05664 10.9785 5.05664C13.041 5.05664 14.6631 6.86133 14.6631 9.03125C14.6631 11.3408 13.0518 13.1025 10.9785 13.0811ZM10.9785 20.5684C8.51855 20.5684 6.02637 19.5586 4.38281 17.8076C5.54297 15.9814 8.06738 14.9072 10.9785 14.9072C13.8682 14.9072 16.4141 15.96 17.585 17.8076C15.9307 19.5586 13.4492 20.5684 10.9785 20.5684Z" fill="#FFAB6B"/>
</svg>
