<svg width="23" height="23" viewBox="0 0 23 23" fill="none" xmlns="http://www.w3.org/2000/svg">
<path d="M10.4 2.57065e-08H12C12.5918 -8.65503e-05 13.1628 0.218512 13.6033 0.613803C14.0438 1.00909 14.3227 1.5532 14.3864 2.1416C14.7152 2.2576 15.0376 2.3912 15.352 2.5416C15.8131 2.17061 16.395 1.98305 16.9859 2.01494C17.5768 2.04684 18.1351 2.29594 18.5536 2.7144L19.6856 3.8464C20.1039 4.26496 20.3529 4.82333 20.3846 5.41427C20.4164 6.0052 20.2287 6.58703 19.8576 7.048C20.0096 7.3624 20.1424 7.6848 20.2576 8.0136C20.8461 8.07714 21.3904 8.35594 21.7859 8.79644C22.1814 9.23693 22.4001 9.80804 22.4 10.4V12C22.4001 12.5918 22.1815 13.1628 21.7862 13.6033C21.3909 14.0438 20.8468 14.3227 20.2584 14.3864C20.1428 14.7153 20.0093 15.0377 19.8584 15.352C20.2294 15.8131 20.417 16.395 20.3851 16.9859C20.3532 17.5768 20.1041 18.1351 19.6856 18.5536L18.5536 19.6856C18.135 20.1039 17.5767 20.3529 16.9857 20.3846C16.3948 20.4164 15.813 20.2287 15.352 19.8576C15.0377 20.0085 14.7153 20.142 14.3864 20.2576C14.3229 20.8461 14.0441 21.3904 13.6036 21.7859C13.1631 22.1814 12.592 22.4001 12 22.4H10.4C9.80816 22.4001 9.23716 22.1815 8.79668 21.7862C8.35621 21.3909 8.07732 20.8468 8.0136 20.2584C7.68467 20.1428 7.36232 20.0093 7.048 19.8584C6.58693 20.2294 6.00505 20.417 5.41411 20.3851C4.82318 20.3532 4.26486 20.1041 3.8464 19.6856L2.7144 18.5536C2.29605 18.135 2.0471 17.5767 2.01535 16.9857C1.98361 16.3948 2.17131 15.813 2.5424 15.352C2.39153 15.0377 2.258 14.7153 2.1424 14.3864C1.55386 14.3229 1.00956 14.0441 0.614101 13.6036C0.218645 13.1631 -6.52331e-05 12.592 2.57065e-08 12V10.4C-8.65503e-05 9.80816 0.218512 9.23716 0.613803 8.79668C1.00909 8.35621 1.5532 8.07732 2.1416 8.0136C2.2576 7.6848 2.3912 7.3624 2.5416 7.048C2.17061 6.58693 1.98305 6.00505 2.01494 5.41411C2.04684 4.82318 2.29594 4.26486 2.7144 3.8464L3.8464 2.7144C4.26496 2.29605 4.82333 2.0471 5.41427 2.01535C6.0052 1.98361 6.58703 2.17131 7.048 2.5424C7.36232 2.39153 7.68467 2.258 8.0136 2.1424C8.07714 1.55386 8.35594 1.00956 8.79644 0.614101C9.23693 0.218645 9.80804 -6.52331e-05 10.4 2.57065e-08V2.57065e-08ZM9.0176 3.5008C8.4176 3.6704 7.8416 3.9096 7.3 4.2128L6.772 4.5088L6.1088 3.8464C5.95878 3.69642 5.75533 3.61217 5.5432 3.61217C5.33107 3.61217 5.12762 3.69642 4.9776 3.8464L3.8464 4.9776C3.69642 5.12762 3.61217 5.33107 3.61217 5.5432C3.61217 5.75533 3.69642 5.95878 3.8464 6.1088L4.5088 6.772L4.2128 7.3C3.90907 7.8427 3.6701 8.41918 3.5008 9.0176L3.336 9.6H2.4C2.18783 9.6 1.98434 9.68429 1.83431 9.83431C1.68429 9.98434 1.6 10.1878 1.6 10.4V12C1.6 12.2122 1.68429 12.4157 1.83431 12.5657C1.98434 12.7157 2.18783 12.8 2.4 12.8H3.336L3.5008 13.3824C3.6704 13.9824 3.9096 14.5584 4.2128 15.1L4.5088 15.628L3.8464 16.2912C3.69642 16.4412 3.61217 16.6447 3.61217 16.8568C3.61217 17.0689 3.69642 17.2724 3.8464 17.4224L4.9776 18.5536C5.12762 18.7036 5.33107 18.7878 5.5432 18.7878C5.75533 18.7878 5.95878 18.7036 6.1088 18.5536L6.772 17.8912L7.3 18.1872C7.8424 18.4904 8.4184 18.7296 9.0176 18.8992L9.6 19.064V20C9.6 20.2122 9.68429 20.4157 9.83431 20.5657C9.98434 20.7157 10.1878 20.8 10.4 20.8H12C12.2122 20.8 12.4157 20.7157 12.5657 20.5657C12.7157 20.4157 12.8 20.2122 12.8 20V19.064L13.3824 18.8992C13.9808 18.7299 14.5573 18.4909 15.1 18.1872L15.628 17.8912L16.2912 18.5536C16.4412 18.7036 16.6447 18.7878 16.8568 18.7878C17.0689 18.7878 17.2724 18.7036 17.4224 18.5536L18.5536 17.4224C18.7036 17.2724 18.7878 17.0689 18.7878 16.8568C18.7878 16.6447 18.7036 16.4412 18.5536 16.2912L17.8912 15.628L18.1872 15.1C18.4904 14.5576 18.7296 13.9816 18.8992 13.3824L19.064 12.8H20C20.2122 12.8 20.4157 12.7157 20.5657 12.5657C20.7157 12.4157 20.8 12.2122 20.8 12V10.4C20.8 10.1878 20.7157 9.98434 20.5657 9.83431C20.4157 9.68429 20.2122 9.6 20 9.6H19.064L18.8992 9.0176C18.7299 8.41918 18.4909 7.8427 18.1872 7.3L17.8912 6.772L18.5536 6.1088C18.7036 5.95878 18.7878 5.75533 18.7878 5.5432C18.7878 5.33107 18.7036 5.12762 18.5536 4.9776L17.4224 3.8464C17.2724 3.69642 17.0689 3.61217 16.8568 3.61217C16.6447 3.61217 16.4412 3.69642 16.2912 3.8464L15.628 4.5088L15.1 4.2128C14.5573 3.90907 13.9808 3.6701 13.3824 3.5008L12.8 3.336V2.4C12.8 2.18783 12.7157 1.98434 12.5657 1.83431C12.4157 1.68429 12.2122 1.6 12 1.6H10.4C10.1878 1.6 9.98434 1.68429 9.83431 1.83431C9.68429 1.98434 9.6 2.18783 9.6 2.4V3.336L9.0176 3.5008ZM11.2 15.2C10.1391 15.2 9.12172 14.7786 8.37157 14.0284C7.62143 13.2783 7.2 12.2609 7.2 11.2C7.2 10.1391 7.62143 9.12172 8.37157 8.37157C9.12172 7.62143 10.1391 7.2 11.2 7.2C12.2609 7.2 13.2783 7.62143 14.0284 8.37157C14.7786 9.12172 15.2 10.1391 15.2 11.2C15.2 12.2609 14.7786 13.2783 14.0284 14.0284C13.2783 14.7786 12.2609 15.2 11.2 15.2ZM11.2 13.6C11.8365 13.6 12.447 13.3471 12.8971 12.8971C13.3471 12.447 13.6 11.8365 13.6 11.2C13.6 10.5635 13.3471 9.95303 12.8971 9.50294C12.447 9.05286 11.8365 8.8 11.2 8.8C10.5635 8.8 9.95303 9.05286 9.50294 9.50294C9.05286 9.95303 8.8 10.5635 8.8 11.2C8.8 11.8365 9.05286 12.447 9.50294 12.8971C9.95303 13.3471 10.5635 13.6 11.2 13.6V13.6Z" fill="#FFAB6B"/>
</svg>
